<svg width="1219" height="329" viewBox="0 0 1219 329" fill="none" xmlns="http://www.w3.org/2000/svg">
<path d="M351.334 78.1215H255.969L234.819 113.024L232.4 120.659H267.719L267.722 120.65H348.854C355.468 120.65 360.664 122.541 364.443 126.321C368.458 129.865 370.466 134.827 370.466 141.206C370.466 142.624 370.23 144.75 369.757 147.585L364.089 176.292C362.435 185.507 358.656 192.713 352.751 197.911C347.083 202.873 339.879 205.354 331.14 205.354H252.842L248.061 168.913L248.388 168.112H217.37L217.116 168.913L203.922 205.354L184.85 310.096L233.627 311.305L245.402 247.883H330.077C352.988 247.883 371.529 241.858 385.7 229.808C400.108 217.522 409.201 200.392 412.98 178.419L418.649 145.459C419.358 141.206 419.712 137.071 419.712 133.055C419.712 116.279 413.571 102.93 401.289 93.0066C389.007 83.0832 372.355 78.1215 351.334 78.1215Z" fill="#E72628"/>
<path d="M517.872 329C500.63 329 485.632 325.928 472.877 319.785C460.359 313.406 450.675 304.546 443.826 293.205C436.976 281.628 433.551 268.278 433.551 253.157C433.551 247.959 434.142 241.58 435.323 234.019L446.66 170.226C452.092 140.219 463.902 116.946 482.089 100.407C500.276 83.6321 523.659 75.2445 552.238 75.2445H589.792C616.246 75.2445 637.031 82.0963 652.147 95.8001C667.5 109.268 675.176 127.46 675.176 150.379C675.176 156.049 674.585 162.665 673.404 170.226L662.067 234.019C656.871 264.025 644.943 287.416 626.284 304.192C607.861 320.731 584.242 329 555.426 329H517.872ZM558.261 285.762C572.668 285.762 584.714 281.037 594.398 271.586C604.082 262.135 610.459 248.904 613.53 231.892L624.158 172.352C624.867 167.627 625.221 163.256 625.221 159.239C625.221 146.717 621.914 136.793 615.301 129.469C608.688 122.144 599.476 118.482 587.667 118.482H550.112C535.941 118.482 524.013 123.208 514.329 132.658C504.645 142.109 498.268 155.34 495.197 172.352L484.569 231.892C483.86 236.382 483.506 240.753 483.506 245.005C483.506 257.528 486.813 267.451 493.426 274.776C500.039 282.1 509.133 285.762 520.706 285.762H558.261Z" fill="#E72628"/>
<path d="M663.224 302.065L825.842 119.9H722.446L750.767 78.0797L899.821 88.4467L897.409 102.179L734.436 284.345H850.076L847.453 326.168L671.204 326.111L661.292 312.81L663.224 302.065Z" fill="#E72628"/>
<path d="M932.76 91.4139L981.652 91.3598L942.246 315.64L893.664 314.151L932.76 91.4139Z" fill="#E72628"/>
<path d="M1085.06 120.609H1019.31L1022.2 78.0797H1207.51L1201.92 120.609H1133.96L1099.16 318.499L1050.81 315.006L1085.06 120.609Z" fill="#E72628"/>
<path d="M191.339 274.567C191.921 271.369 195.118 269.358 198.251 270.219L234.272 280.113C237.038 280.873 238.766 283.62 238.253 286.443L231.763 322.171C231.285 324.805 228.992 326.719 226.316 326.719H188.479C185.025 326.719 182.414 323.589 183.033 320.189L191.339 274.567Z" fill="#E72628"/>
<path d="M211.37 164.9C211.854 162.273 214.143 160.366 216.813 160.365L254.759 160.356C258.215 160.355 260.827 163.488 260.206 166.89L243.737 256.995C243.256 259.625 240.964 261.536 238.291 261.536H200.227C196.768 261.536 194.156 258.399 194.783 254.996L211.37 164.9Z" fill="#E72628"/>
<path d="M225.452 120.735C222.001 120.735 219.391 117.61 220.005 114.212L225.708 82.675C226.184 80.0396 228.478 78.123 231.155 78.123H313.911C316.969 78.123 319.447 80.6023 319.447 83.6606V115.197C319.447 118.255 316.969 120.735 313.912 120.735L225.452 120.735Z" fill="#E72628"/>
<path d="M708.061 119.87C704.62 119.87 702.013 116.763 702.609 113.373L708.002 82.7014C708.467 80.0537 710.766 78.123 713.454 78.123L809.058 78.123C812.115 78.123 814.594 80.6023 814.594 83.6606V114.332C814.594 117.39 812.115 119.869 809.058 119.869L708.061 119.87Z" fill="#E72628"/>
<path d="M1013.02 120.591C1009.59 120.591 1006.98 117.489 1007.57 114.101L1013.06 82.6708C1013.52 80.02 1015.82 78.0856 1018.51 78.0856L1114.11 78.0856C1117.17 78.0856 1119.64 80.5649 1119.64 83.6232V115.054C1119.64 118.112 1117.17 120.592 1114.11 120.592L1013.02 120.591Z" fill="#E72628"/>
<path d="M1213.46 78.0867C1216.9 78.0868 1219.51 81.1888 1218.92 84.5768L1213.43 116.007C1212.97 118.658 1210.67 120.592 1207.98 120.592L1112.38 120.592C1109.32 120.592 1106.84 118.113 1106.84 115.055V83.6239C1106.84 80.5656 1109.32 78.0863 1112.38 78.0863L1213.46 78.0867Z" fill="#E72628"/>
<path d="M895.08 78.0814C898.531 78.0814 901.141 81.2052 900.528 84.6022L898.293 96.9957C897.817 99.6323 895.523 101.55 892.845 101.55H794.443C791.262 101.55 788.736 98.8755 788.916 95.699L789.618 83.3071C789.785 80.3753 792.21 78.0831 795.145 78.0831L895.08 78.0814Z" fill="#E72628"/>
<path d="M665.531 326.132C662.09 326.132 659.483 323.025 660.079 319.635L662.364 306.641C662.829 303.993 665.129 302.062 667.816 302.062H766.206C769.383 302.062 771.909 304.732 771.733 307.906L771.015 320.898C770.853 323.833 768.426 326.13 765.488 326.13L665.531 326.132Z" fill="#E72628"/>
<path d="M855.362 284.343C858.802 284.343 861.409 287.449 860.814 290.839L855.418 321.587C854.953 324.236 852.654 326.168 849.966 326.168H754.363C751.306 326.168 748.827 323.688 748.827 320.63V289.881C748.827 286.823 751.306 284.344 754.363 284.344L855.362 284.343Z" fill="#E72628"/>
<path d="M1049.95 319.717C1049.35 323.11 1051.96 326.223 1055.4 326.223L1093.16 326.223C1095.84 326.223 1098.14 324.293 1098.61 321.645L1114.55 230.994C1115.25 227.059 1111.67 223.708 1107.79 224.654L1068.49 234.227C1066.36 234.746 1064.73 236.477 1064.35 238.639L1049.95 319.717Z" fill="#E72628"/>
<path d="M892.688 319.663C892.092 323.053 894.7 326.16 898.14 326.16H935.755C938.442 326.16 940.741 324.23 941.207 321.583L957.181 230.845C957.874 226.91 954.299 223.558 950.419 224.504L911.101 234.088C908.966 234.609 907.341 236.343 906.96 238.509L892.688 319.663Z" fill="#E72628"/>
<path d="M982.862 84.5784C983.461 81.1874 980.853 78.078 977.411 78.0781L939.745 78.079C937.056 78.0791 934.755 80.0125 934.292 82.6625L918.39 173.599C917.703 177.529 921.27 180.874 925.146 179.935L964.34 170.442C966.478 169.924 968.106 168.189 968.489 166.023L982.862 84.5784Z" fill="#E72628"/>
<path d="M111.438 82.1029C111.904 79.4562 114.203 77.5266 116.89 77.5266H187.869C191.317 77.5266 193.926 80.6449 193.318 84.0396L180.44 156.029C179.968 158.669 177.672 160.591 174.991 160.591L104.205 160.591C100.763 160.591 98.1556 157.482 98.753 154.092L111.438 82.1029Z" fill="#E72628"/>
<path d="M38.0803 4.56968C38.5494 1.92607 40.8468 0 43.5308 0H117.5C120.948 0 123.557 3.11912 122.949 6.51423L111.047 72.9656C110.574 75.6051 108.278 77.5266 105.598 77.5266H31.7379C28.2935 77.5266 25.6853 74.4136 26.2874 71.021L38.0803 4.56968Z" fill="#E72628"/>
<path d="M11.4917 165.152C11.9644 162.512 14.26 160.591 16.9407 160.591H90.988C94.4374 160.591 97.0468 163.712 96.4364 167.108L84.9895 230.791C84.5153 233.429 82.2205 235.349 79.5411 235.349H5.5373C2.08938 235.349 -0.519655 232.23 0.088285 228.835L11.4917 165.152Z" fill="#E72628"/>
</svg>
